<?xml version="1.0" encoding="UTF-8"?>
<!-- Created with Inkscape (http://www.inkscape.org/) -->
<svg width="1365" height="768" version="1.1" viewBox="0 0 1365 768" xmlns="http://www.w3.org/2000/svg">
 <path d="m560.01 677.92c-21.789-5.2935-34.495-26.106-29.062-47.605 5.1638-20.436 26.734-33.127 48.567-28.575 14.237 2.9686 25.487 12.334 29.907 24.899 3.2073 9.1164 2.7765 21.478-1.0343 29.676-8.1481 17.528-28.235 26.499-48.378 21.605zm22.041-13.971c10.088-4.7346 14.869-12.474 14.91-24.134 0.0183-5.3043-0.53414-8.15-2.2806-11.747-6.4281-13.24-23.095-18.364-36.93-11.354-8.7926 4.4556-13.199 12.286-13.199 23.455 0 8.267 3.3158 15.665 9.1275 20.364 7.6702 6.2024 19.421 7.617 28.372 3.4157zm176.91 13.882c-7.5307-1.6385-18.411-6.9988-18.411-9.0704 0-1.2636 3.4558-9.0593 4.5703-10.31 0.17843-0.20021 1.5105 0.56893 2.9601 1.7092 1.4496 1.1403 5.1561 3.0162 8.2367 4.1688 14.947 5.5924 31.233 2.2739 31.233-6.3641 0-6.6675-1.9504-7.7489-24.71-13.7-10.815-2.8282-16.363-6.4025-19.275-12.419-4.0415-8.3486-0.87832-19.581 7.0645-25.085 10.378-7.1921 31.215-7.8002 44.171-1.2891 4.303 2.1625 4.4227 2.7647 1.7289 8.7012-1.5791 3.48-2.3297 4.2042-3.728 3.5966-11.652-5.0624-23.688-6.2386-30.544-2.9849-4.4649 2.1187-5.9391 4.4692-5.5164 8.7952 0.44017 4.505 4.6284 6.9422 17.451 10.155 5.9144 1.482 12.918 3.6257 15.563 4.7638 8.8766 3.8186 13.728 12.109 12.374 21.144-2.2481 14.991-21.187 22.971-43.167 18.189zm-465.74-0.1828c-0.36667-0.36666-0.66667-14.767-0.66667-32v-31.333h-25v-12h65v12h-25v64h-6.8333c-3.7583 0-7.1333-0.3-7.5-0.66667zm38.635-0.53903c0.30249-0.71187 7.5977-16.594 16.212-35.294s16.274-35.462 17.023-37.25c1.35-3.223 1.419-3.25 8.29-3.25 4.3796 0 7.2712 0.45987 7.8598 1.25 0.51214 0.6875 5.1458 10.475 10.297 21.75s12.887 27.874 17.191 36.886c4.3041 9.0125 7.8256 16.55 7.8256 16.75 0 0.20001-3.4875 0.35754-7.75 0.35007l-7.75-0.0136-7.8819-18.014-39.014 0.54101-7.3181 17-7.7671 0.2943c-6.0544 0.2294-7.6458 9e-3 -7.2171-1zm55.698-28.509c0-1.9542-13.506-31.174-14.112-30.531-0.38694 0.41016-3.6189 7.2708-7.1821 15.246-5.564 12.453-6.2476 14.596-4.8422 15.18 2.2007 0.91417 26.136 1.0108 26.136 0.10555zm42-8.2853v-38h14v76h-14zm38 0v-38h14v62.958l39.5 0.54228 0.59544 12.5h-54.095zm162-0.0687v-38.069l22.25 0.31874c21.883 0.31348 22.333 0.36265 27.25 2.9794 10.172 5.413 14.5 12.425 14.5 23.491 0 9.9021-4.6791 17.825-13.545 22.935-1.7366 1.001-1.1941 2.056 6.8292 13.282 4.7936 6.7072 8.7157 12.405 8.7157 12.663 0 0.25725-3.4875 0.46432-7.75 0.46016l-7.75-8e-3 -7.9131-11.492-7.9131-11.492h-20.674v23h-14zm41.929 1.3172c5.3216-2.7135 7.5711-6.5014 7.5711-12.748 0-6.2693-2.2702-10.081-7.5645-12.699-3.0788-1.5229-12.7-2.2206-25.685-1.8627-2.227 0.0614-2.25 0.21001-2.25 14.562v14.5l12.25-2e-3c9.6862-1e-3 12.968-0.36749 15.679-1.75zm148.31-1.4984 0.26188-38.25 5.5-0.0621c3.025-0.0341 6.0625 0.1265 6.75 0.35699 0.92529 0.31021 1.25 4.2878 1.25 15.312v14.893h19c10.45 0 19.338 1e-3 19.75 2e-3s0.87422-6.7487 1.026-15l0.27605-15.002h13.948v76h-14v-33h-40v33h-14.024zm91.762 0.24996v-38h14v76h-14zm37 0v-38h57v10.96l-42.5 0.53978-0.5655 22.5h38.065v12l-16.75 0.17105c-9.2125 0.0941-17.65 0.21459-18.75 0.2678-1.8919 0.0915-2.015 0.89309-2.2767 14.829l-0.27673 14.732h-13.947zm91.667 37.333c-0.3667-0.36666-0.6667-14.767-0.6667-32v-31.333h-25v-12h65.1l-0.5998 11.5-24.185 0.55903-0.6574 19.631c-0.3616 10.797-0.6575 25.184-0.6575 31.97v12.339h-6.3333c-3.4834 0-6.6334-0.3-7-0.66667zm-484.23-151.33c13.854-28.045 44.402-88.744 61.777-122.75l14.944-29.25h-83.155v-4c0-3.9143 0.0759-4 3.5445-4 5.7019 0 15.634-2.9173 19.942-5.8576 4.8046-3.279 7.9438-7.7326 10.259-14.554 1.5892-4.6831 1.7504-14.28 2.0229-120.49l0.29608-115.4-12.282 0.59714c-19.92 0.96848-32.637 4.4265-43.873 11.93-15.117 10.094-25.856 25.722-31.975 46.53-1.2221 4.1555-1.3465 4.25-5.5916 4.25-4.0765 0-4.34-0.16798-4.3138-2.75 0.045-4.4379 5.7315-67.343 6.1231-67.734 0.51919-0.51919 227.74-0.96844 228.2-0.45119 0.21361 0.23953 1.5952 14.611 3.0703 31.936s2.9456 33.215 3.2679 35.31l0.58604 3.8104-9.3938-0.62081-2.4558-7.3086c-12.496-37.189-38.476-55.191-79.649-55.191h-6.7762v113.45c0 115.39 0.13002 119.81 3.7386 127.05 1.6599 3.3301 5.1978 7.5 6.3633 7.5 0.41429 0 4.6802-7.5375 9.4797-16.75 19.879-38.157 51.153-95.838 84.174-155.25 27.818-50.05 65.799-116.84 67.385-118.5 1.1376-1.189-33.188 68.675-63.501 129.25-11.904 23.788-21.531 43.245-21.392 43.239 0.13875-6e-3 2.5023-0.70793 5.2523-1.5599 14.504-4.4937 36.724-5.7395 52.695-2.9544 4.6514 0.81114 14.723 3.4627 22.381 5.8924 7.6581 2.4296 15.136 4.6931 16.617 5.0299 3.5856 0.81535 7.0854-0.90489 9.2311-4.5373 1.5107-2.5574 2.2627-2.9275 5.4153-2.6648l3.6609 0.30506 1.6703 33c0.91866 18.15 1.7062 35.388 1.75 38.308l0.0797 5.3075-8.2242-0.615-3.3285-9.3387c-8.7594-24.576-24.576-46.778-39.527-55.485-15.665-9.1226-37.467-10.029-53.619-2.2284-24.436 11.801-31.738 41.139-15.587 62.626 7.7581 10.321 17.211 16.407 52.785 33.988 17.6 8.6978 36.271 18.655 41.492 22.126 12.003 7.9821 22.73 18.117 28.836 27.246 17.472 26.122 14.114 64.689-7.6391 87.749-14.925 15.821-33.543 24.061-60.692 26.86-20.279 2.0907-40.627-1.1712-65.497-10.499-15.751-5.9077-20.45-6.5783-24.371-3.4779-1.5792 1.2486-3.4977 3.7697-4.2634 5.6023-1.2461 2.9823-1.8087 3.3321-5.3598 3.3321-3.3116 0-4.0435-0.37196-4.4271-2.25-0.25276-1.2375-0.94908-16.425-1.5474-33.75s-1.3686-36.562-1.7119-42.75l-0.62407-11.25h8.8795l3.2498 9.9145c7.0483 21.503 19.368 42.449 32.694 55.585 13.797 13.6 26.36 19.376 43.978 20.219 34.524 1.6514 58.371-19.857 56.232-50.719-1.0043-14.493-7.0139-26.067-18.421-35.476-9.0567-7.4704-15.569-11.214-46.336-26.633-14.462-7.248-30.843-16.219-36.401-19.936-17.06-11.408-30.492-27.307-33.927-40.157-0.49657-1.8577-2.8122 1.7658-12.098 18.93-14.204 26.257-27.021 49.268-48.33 86.772-45.307 79.738-63.138 110.75-64.404 112-0.55563 0.55 3.3246-7.775 8.6227-18.5z"/>
</svg>
