<?xml version="1.0" encoding="UTF-8" standalone="no"?>
<!-- Created with Inkscape (http://www.inkscape.org/) -->

<svg
   width="210mm"
   height="297mm"
   viewBox="0 0 210 297"
   version="1.1"
   id="svg1"
   inkscape:version="1.4.2 (f4327f4, 2025-05-13)"
   sodipodi:docname="Pictograme_tailor_shift.svg"
   xmlns:inkscape="http://www.inkscape.org/namespaces/inkscape"
   xmlns:sodipodi="http://sodipodi.sourceforge.net/DTD/sodipodi-0.dtd"
   xmlns="http://www.w3.org/2000/svg"
   xmlns:svg="http://www.w3.org/2000/svg">
  <sodipodi:namedview
     id="namedview1"
     pagecolor="#ffffff"
     bordercolor="#000000"
     borderopacity="0.25"
     inkscape:showpageshadow="2"
     inkscape:pageopacity="0.0"
     inkscape:pagecheckerboard="0"
     inkscape:deskcolor="#d1d1d1"
     inkscape:document-units="mm"
     inkscape:zoom="0.52203984"
     inkscape:cx="397.47924"
     inkscape:cy="561.25984"
     inkscape:window-width="1440"
     inkscape:window-height="830"
     inkscape:window-x="-6"
     inkscape:window-y="-6"
     inkscape:window-maximized="1"
     inkscape:current-layer="layer1" />
  <defs
     id="defs1" />
  <g
     inkscape:label="Calque 1"
     inkscape:groupmode="layer"
     id="layer1">
    <path
       style="fill:#000000;stroke-width:0.264583"
       d="m 76.364799,206.77534 c 3.556781,-7.42025 11.403801,-23.48019 15.86883,-32.4776 l 3.840562,-7.73906 H 85.073441 74.07269 l -0.01553,-1.05834 c -0.01519,-1.03566 0.0046,-1.05833 0.922295,-1.05833 1.508623,0 4.125106,-0.77187 5.253617,-1.54983 1.258501,-0.86758 2.071804,-2.04591 2.65783,-3.85074 0.40232,-1.23907 0.407717,-3.77835 0.06776,-31.88015 L 82.589289,96.627453 79.34196,96.785446 c -5.266724,0.256244 -8.618119,1.17117 -11.561884,3.156379 -3.960437,2.670835 -6.741195,6.805585 -8.279641,12.311125 -0.307234,1.09947 -0.339767,1.12448 -1.462966,1.12448 -1.078576,0 -1.148945,-0.0444 -1.152035,-0.72761 -0.0053,-1.17418 1.255204,-17.817764 1.357291,-17.921369 0.135356,-0.137369 60.252035,-0.256233 60.376095,-0.119378 0.0575,0.06338 0.47875,3.865698 0.93623,8.449607 0.45749,4.5839 0.90822,8.78805 1.00163,9.34254 l 0.16984,1.00817 -1.24392,-0.0821 -1.24393,-0.0821 -0.6781,-1.93373 C 114.11011,101.47187 107.1663,96.708677 96.272607,96.708677 h -1.79288 l 0.44014,30.017183 c 0.447664,30.53065 0.499208,31.69965 1.482061,33.61511 0.452099,0.88108 1.404353,1.98437 1.712719,1.98437 0.109614,0 1.209053,-1.99429 2.443203,-4.43177 5.11168,-10.09573 13.16244,-25.35716 21.66885,-41.07656 7.16595,-13.24229 16.95602,-30.913965 17.36929,-31.352633 0.29637,-0.314576 -8.51447,18.170293 -16.29998,34.196903 -3.05744,6.29378 -5.52896,11.44194 -5.49227,11.44037 0.0367,-0.002 0.65931,-0.18731 1.38361,-0.41274 3.8201,-1.18895 9.69441,-1.51857 13.9308,-0.78169 1.23384,0.21461 3.90886,0.91617 5.9445,1.55902 2.03563,0.64284 4.02282,1.24171 4.41597,1.33082 0.95185,0.21573 1.87116,-0.23942 2.42479,-1.2005 0.38979,-0.67665 0.58733,-0.77456 1.42245,-0.70506 l 0.96981,0.0807 0.56995,8.73125 c 0.31348,4.80219 0.58872,9.36317 0.61164,10.13552 l 0.0417,1.40428 -1.08918,-0.0814 -1.08918,-0.0814 -0.9169,-2.47087 c -2.41292,-6.50239 -6.68388,-12.37667 -10.6735,-14.68036 -4.18013,-2.4137 -9.95209,-2.65343 -14.19528,-0.5896 -6.41968,3.12245 -8.23778,10.88482 -3.88098,16.56976 2.09271,2.73065 4.61729,4.34099 14.09794,8.99258 4.69041,2.3013 9.66918,4.93572 11.06393,5.85426 3.20686,2.11193 6.08423,4.79355 7.73513,7.2089 4.72405,6.91152 3.98533,17.11571 -1.68074,23.21688 -3.8875,4.18601 -8.7815,6.36605 -15.95381,7.10664 -5.35726,0.55317 -10.75378,-0.30988 -17.37011,-2.77794 -4.19026,-1.56307 -5.43625,-1.74051 -6.4617,-0.92019 -0.41297,0.33036 -0.9108,0.99739 -1.10629,1.48228 -0.31813,0.78907 -0.46564,0.88162 -1.40518,0.88162 -0.8762,0 -1.07129,-0.0984 -1.18007,-0.59531 -0.0717,-0.32743 -0.31483,-4.34578 -0.54034,-8.92969 -0.22551,-4.58391 -0.50397,-9.67383 -0.61879,-11.31094 l -0.20876,-2.97656 h 1.17469 1.17468 l 0.8983,2.62322 c 1.94829,5.68945 5.28919,11.23141 8.86591,14.70699 3.70315,3.59843 7.04958,5.12666 11.71433,5.34964 9.14094,0.43694 15.36694,-5.2539 14.68138,-13.41943 -0.32196,-3.83467 -1.95691,-6.89687 -5.01148,-9.38631 -2.42524,-1.97655 -4.16285,-2.96695 -12.363,-7.04667 -3.85456,-1.91771 -8.2234,-4.29139 -9.70853,-5.27483 -4.55799,-3.01827 -8.17362,-7.22486 -9.1323,-10.62494 -0.13859,-0.49152 -0.73721,0.46721 -3.12738,5.00867 -3.656334,6.94725 -6.958114,13.03552 -12.450788,22.95845 -11.678139,21.09745 -16.275555,29.30161 -16.605808,29.63333 -0.144875,0.14552 0.849469,-2.05713 2.209655,-4.89479 z"
       id="path15" />
  </g>
</svg>
